<mxfile host="app.diagrams.net" agent="Mozilla/5.0 (Windows NT 10.0; Win64; x64) AppleWebKit/537.36 (KHTML, like Gecko) Chrome/133.0.0.0 Safari/537.36" version="26.1.0">
  <diagram name="Sida-1" id="qELVJilZQS901PVHTaTv">
    <mxGraphModel dx="794" dy="1581" grid="1" gridSize="10" guides="1" tooltips="1" connect="1" arrows="1" fold="1" page="1" pageScale="1" pageWidth="827" pageHeight="1169" math="0" shadow="0">
      <root>
        <mxCell id="0" />
        <mxCell id="1" parent="0" />
        <mxCell id="eGCiHKHXc4jMaPLjIlaf-5" value="" style="edgeStyle=orthogonalEdgeStyle;rounded=0;orthogonalLoop=1;jettySize=auto;html=1;" edge="1" parent="1" source="eGCiHKHXc4jMaPLjIlaf-1" target="eGCiHKHXc4jMaPLjIlaf-4">
          <mxGeometry relative="1" as="geometry" />
        </mxCell>
        <mxCell id="eGCiHKHXc4jMaPLjIlaf-9" value="" style="edgeStyle=orthogonalEdgeStyle;rounded=0;orthogonalLoop=1;jettySize=auto;html=1;exitX=0.5;exitY=1;exitDx=0;exitDy=0;" edge="1" parent="1" source="eGCiHKHXc4jMaPLjIlaf-8" target="eGCiHKHXc4jMaPLjIlaf-1">
          <mxGeometry relative="1" as="geometry">
            <mxPoint x="230" y="20" as="targetPoint" />
          </mxGeometry>
        </mxCell>
        <mxCell id="eGCiHKHXc4jMaPLjIlaf-11" value="" style="edgeStyle=orthogonalEdgeStyle;rounded=0;orthogonalLoop=1;jettySize=auto;html=1;exitX=0.5;exitY=1;exitDx=0;exitDy=0;entryX=0;entryY=0.75;entryDx=0;entryDy=0;" edge="1" parent="1" source="eGCiHKHXc4jMaPLjIlaf-10" target="eGCiHKHXc4jMaPLjIlaf-1">
          <mxGeometry relative="1" as="geometry">
            <mxPoint x="100" y="40" as="targetPoint" />
          </mxGeometry>
        </mxCell>
        <mxCell id="eGCiHKHXc4jMaPLjIlaf-1" value="Customers" style="whiteSpace=wrap;html=1;align=center;" vertex="1" parent="1">
          <mxGeometry x="147.5" y="140" width="100" height="40" as="geometry" />
        </mxCell>
        <mxCell id="eGCiHKHXc4jMaPLjIlaf-7" value="" style="edgeStyle=orthogonalEdgeStyle;rounded=0;orthogonalLoop=1;jettySize=auto;html=1;" edge="1" parent="1" source="eGCiHKHXc4jMaPLjIlaf-4" target="eGCiHKHXc4jMaPLjIlaf-6">
          <mxGeometry relative="1" as="geometry" />
        </mxCell>
        <mxCell id="eGCiHKHXc4jMaPLjIlaf-4" value="HAS" style="rhombus;whiteSpace=wrap;html=1;" vertex="1" parent="1">
          <mxGeometry x="290" y="220" width="80" height="80" as="geometry" />
        </mxCell>
        <mxCell id="eGCiHKHXc4jMaPLjIlaf-6" value="Orders" style="whiteSpace=wrap;html=1;" vertex="1" parent="1">
          <mxGeometry x="450" y="360" width="120" height="60" as="geometry" />
        </mxCell>
        <mxCell id="eGCiHKHXc4jMaPLjIlaf-8" value="Name" style="ellipse;whiteSpace=wrap;html=1;" vertex="1" parent="1">
          <mxGeometry x="130" y="-70" width="95" height="50" as="geometry" />
        </mxCell>
        <mxCell id="eGCiHKHXc4jMaPLjIlaf-10" value="Email" style="ellipse;whiteSpace=wrap;html=1;" vertex="1" parent="1">
          <mxGeometry x="20" y="-40" width="100" height="60" as="geometry" />
        </mxCell>
        <mxCell id="eGCiHKHXc4jMaPLjIlaf-12" value="&lt;u&gt;Customer_ID&lt;/u&gt;" style="ellipse;whiteSpace=wrap;html=1;" vertex="1" parent="1">
          <mxGeometry x="270" y="-35" width="95" height="50" as="geometry" />
        </mxCell>
        <mxCell id="eGCiHKHXc4jMaPLjIlaf-14" value="" style="endArrow=classic;html=1;rounded=0;" edge="1" parent="1" source="eGCiHKHXc4jMaPLjIlaf-12" target="eGCiHKHXc4jMaPLjIlaf-1">
          <mxGeometry width="50" height="50" relative="1" as="geometry">
            <mxPoint x="360" y="140" as="sourcePoint" />
            <mxPoint x="400" y="70" as="targetPoint" />
          </mxGeometry>
        </mxCell>
      </root>
    </mxGraphModel>
  </diagram>
</mxfile>
